# RokuSuper Output Ver6.0 for Wavefront Obj

v 0.05798990 -0.14000000 0.25000000
v 0.05798990 -0.14000000 -0.05000000
v 0.14000000 -0.05798990 0.25000000
v 0.14000000 -0.05798990 -0.05000000
v 0.14000000 0.05798990 0.25000000
v 0.14000000 0.05798990 -0.05000000
v 0.05798990 0.14000000 0.25000000
v 0.05798990 0.14000000 -0.05000000
v -0.05798990 0.14000000 0.25000000
v -0.05798990 0.14000000 -0.05000000
v -0.14000000 0.05798990 0.25000000
v -0.14000000 0.05798990 -0.05000000
v -0.14000000 -0.05798990 0.25000000
v -0.14000000 -0.05798990 -0.05000000
v -0.05798990 -0.14000000 0.25000000
v -0.05798990 -0.14000000 -0.05000000
v -0.00000000 0.00000000 -0.05000000

vt 0.67528949 0.59412851
vt 0.66284188 0.56407733
vt 0.68773709 0.56407733
vt 0.78357051 0.56060493
vt 0.72095314 0.56060493
vt 0.72095314 0.56060493
vt 0.78357051 0.56060493
vt 0.67528949 0.59412851
vt 0.64523831 0.58168090
vt 0.66284188 0.56407733
vt 0.78357051 0.56060493
vt 0.72095314 0.56060493
vt 0.72095314 0.57772245
vt 0.78357051 0.57772245
vt 0.67528949 0.59412851
vt 0.64523831 0.60657611
vt 0.64523831 0.58168090
vt 0.78357051 0.57772245
vt 0.72095314 0.57772245
vt 0.72095314 0.60193028
vt 0.78357051 0.60193028
vt 0.67528949 0.59412851
vt 0.66284188 0.62417968
vt 0.64523831 0.60657611
vt 0.78357051 0.60193028
vt 0.72095314 0.60193028
vt 0.72095314 0.61904780
vt 0.78357051 0.61904780
vt 0.67528949 0.59412851
vt 0.68773709 0.62417968
vt 0.66284188 0.62417968
vt 0.78357051 0.61904780
vt 0.72095314 0.61904780
vt 0.72095314 0.61904780
vt 0.78357051 0.61904780
vt 0.67528949 0.59412851
vt 0.70534066 0.60657611
vt 0.68773709 0.62417968
vt 0.78357051 0.61904780
vt 0.72095314 0.61904780
vt 0.72095314 0.60193028
vt 0.78357051 0.60193028
vt 0.67528949 0.59412851
vt 0.70534066 0.58168090
vt 0.70534066 0.60657611
vt 0.78357051 0.60193028
vt 0.72095314 0.60193028
vt 0.72095314 0.57772245
vt 0.78357051 0.57772245
vt 0.67528949 0.59412851
vt 0.68773709 0.56407733
vt 0.70534066 0.58168090
vt 0.78357051 0.57772245
vt 0.72095314 0.57772245
vt 0.72095314 0.56060493
vt 0.78357051 0.56060493

vn 0.00000000 -0.00000000 -1.00000000
vn -0.00000000 -0.00000000 -1.00000000
vn 0.00000000 -0.00000000 -1.00000000
vn -0.25272473 -0.96753822 -0.00000000
vn -0.50544947 -0.86285621 -0.00000000
vn 0.25272473 -0.96753822 -0.00000000
vn 0.50544947 -0.86285621 -0.00000000
vn -0.00000000 -0.00000000 -1.00000000
vn -0.00000000 -0.00000000 -1.00000000
vn -0.00000000 -0.00000000 -1.00000000
vn 0.50544947 -0.86285621 -0.00000000
vn 0.25272473 -0.96753822 -0.00000000
vn 0.86285621 -0.50544947 0.00000000
vn 0.96753822 -0.25272473 0.00000000
vn 0.00000000 -0.00000000 -1.00000000
vn 0.00000000 -0.00000000 -1.00000000
vn -0.00000000 -0.00000000 -1.00000000
vn 0.96753822 -0.25272473 0.00000000
vn 0.86285621 -0.50544947 0.00000000
vn 0.96753822 0.25272473 0.00000000
vn 0.86285621 0.50544947 0.00000000
vn 0.00000000 -0.00000000 -1.00000000
vn 0.00000000 -0.00000000 -1.00000000
vn 0.00000000 -0.00000000 -1.00000000
vn 0.86285621 0.50544947 0.00000000
vn 0.96753822 0.25272473 0.00000000
vn 0.50544947 0.86285621 0.00000000
vn 0.25272473 0.96753822 0.00000000
vn 0.00000000 -0.00000000 -1.00000000
vn -0.00000000 -0.00000000 -1.00000000
vn 0.00000000 -0.00000000 -1.00000000
vn 0.25272473 0.96753822 0.00000000
vn 0.50544947 0.86285621 0.00000000
vn -0.25272473 0.96753822 0.00000000
vn -0.50544947 0.86285621 0.00000000
vn -0.00000000 -0.00000000 -1.00000000
vn -0.00000000 -0.00000000 -1.00000000
vn -0.00000000 -0.00000000 -1.00000000
vn -0.50544947 0.86285621 0.00000000
vn -0.25272473 0.96753822 0.00000000
vn -0.86285621 0.50544947 0.00000000
vn -0.96753822 0.25272473 0.00000000
vn 0.00000000 -0.00000000 -1.00000000
vn 0.00000000 -0.00000000 -1.00000000
vn -0.00000000 -0.00000000 -1.00000000
vn -0.96753822 0.25272473 0.00000000
vn -0.86285621 0.50544947 0.00000000
vn -0.96753822 -0.25272473 -0.00000000
vn -0.86285621 -0.50544947 -0.00000000
vn 0.00000000 -0.00000000 -1.00000000
vn 0.00000000 -0.00000000 -1.00000000
vn 0.00000000 -0.00000000 -1.00000000
vn -0.86285621 -0.50544947 -0.00000000
vn -0.96753822 -0.25272473 -0.00000000
vn -0.50544947 -0.86285621 -0.00000000
vn -0.25272473 -0.96753822 -0.00000000

g FlatCar_Buffer_Base
f 17/1/1 2/2/2 16/3/3
f 15/4/4 16/5/5 2/6/6 1/7/7
f 17/8/8 4/9/9 2/10/10
f 1/11/11 2/12/12 4/13/13 3/14/14
f 17/15/15 6/16/16 4/17/17
f 3/18/18 4/19/19 6/20/20 5/21/21
f 17/22/22 8/23/23 6/24/24
f 5/25/25 6/26/26 8/27/27 7/28/28
f 17/29/29 10/30/30 8/31/31
f 7/32/32 8/33/33 10/34/34 9/35/35
f 17/36/36 12/37/37 10/38/38
f 9/39/39 10/40/40 12/41/41 11/42/42
f 17/43/43 14/44/44 12/45/45
f 11/46/46 12/47/47 14/48/48 13/49/49
f 17/50/50 16/51/51 14/52/52
f 13/53/53 14/54/54 16/55/55 15/56/56

