# RokuSuper Output Ver6.0 for Wavefront Obj

v -0.10000000 0.00000000 40.00000060
v -0.10000000 0.70000001 -40.00000060
v 0.10000000 0.70000001 -40.00000060
v 0.10000000 0.00000000 -40.00000060
v -0.10000000 0.00000000 -40.00000060
v -0.10000000 0.70000001 40.00000060
v 0.10000000 0.70000001 40.00000060
v 0.10000000 0.00000000 40.00000060

vt 1.00000000 0.47500000
vt 1.00000000 0.52500000
vt 0.00000000 0.52500000
vt 0.00000000 0.47500000
vt 1.00000000 0.47500000
vt 0.00000000 0.47500000
vt 0.00000000 0.52500000
vt 1.00000000 0.52500000

vn 1.00000000 0.00000000 0.00000000
vn 1.00000000 0.00000000 0.00000000
vn 1.00000000 0.00000000 0.00000000
vn 1.00000000 0.00000000 0.00000000
vn -1.00000000 0.00000000 0.00000000
vn -1.00000000 0.00000000 0.00000000
vn -1.00000000 0.00000000 0.00000000
vn -1.00000000 0.00000000 0.00000000

g Guide_Straight
f 4/1/1 3/2/2 7/3/3 8/4/4
f 5/5/5 1/6/6 6/7/7 2/8/8

