# RokuSuper Output Ver6.0 for Wavefront Obj

v -0.75000001 -0.00000000 40.00000060
v -0.75000001 0.25000000 -40.00000060
v -0.75000001 0.00000000 -40.00000060
v -0.75000001 0.25000000 40.00000060
v 0.75000001 -0.00000000 40.00000060
v 0.75000001 0.25000000 40.00000060
v 0.75000001 0.00000000 -40.00000060
v 0.75000001 0.25000000 -40.00000060

vt 0.47500000 0.00000000
vt 0.47500000 1.00000000
vt 0.52500000 1.00000000
vt 0.52500000 0.00000000
vt 0.52500000 0.00000000
vt 0.52500000 1.00000000
vt 0.47500000 1.00000000
vt 0.47500000 0.00000000
vt 0.52500000 0.00000000
vt 0.52500000 1.00000000
vt 0.52500000 1.00000000
vt 0.52500000 0.00000000
vt 0.47500000 1.00000000
vt 0.47500000 1.00000000
vt 0.47500000 0.00000000
vt 0.47500000 0.00000000

vn 0.00000000 -1.00000000 -0.00000000
vn 0.00000000 -1.00000000 -0.00000000
vn 0.00000000 -1.00000000 -0.00000000
vn 0.00000000 -1.00000000 -0.00000000
vn 0.00000000 1.00000000 0.00000000
vn 0.00000000 1.00000000 0.00000000
vn 0.00000000 1.00000000 0.00000000
vn 0.00000000 1.00000000 0.00000000
vn -1.00000000 0.00000000 0.00000000
vn -1.00000000 0.00000000 0.00000000
vn -1.00000000 0.00000000 0.00000000
vn -1.00000000 0.00000000 0.00000000
vn 1.00000000 0.00000000 0.00000000
vn 1.00000000 0.00000000 0.00000000
vn 1.00000000 0.00000000 0.00000000
vn 1.00000000 0.00000000 0.00000000

g Rail_Straight_Collider
f 7/1/1 5/2/2 1/3/3 3/4/4
f 2/5/5 4/6/6 6/7/7 8/8/8
f 3/9/9 1/10/10 4/11/11 2/12/12
f 6/13/13 5/14/14 7/15/15 8/16/16

